<svg width="18" height="18" viewBox="0 0 18 18" fill="none" xmlns="http://www.w3.org/2000/svg">
<path d="M9 18C8.19271 18 7.41471 17.8958 6.66602 17.6875C5.92383 17.4792 5.22721 17.1862 4.57617 16.8086C3.93164 16.4245 3.34245 15.9688 2.80859 15.4414C2.28125 14.9076 1.82552 14.3184 1.44141 13.6738C1.0638 13.0228 0.770833 12.3262 0.5625 11.584C0.354167 10.8353 0.25 10.0573 0.25 9.25C0.25 8.44271 0.354167 7.66797 0.5625 6.92578C0.770833 6.17708 1.0638 5.48047 1.44141 4.83594C1.82552 4.1849 2.28125 3.5957 2.80859 3.06836C3.34245 2.53451 3.93164 2.07878 4.57617 1.70117C5.22721 1.31706 5.92383 1.02083 6.66602 0.8125C7.41471 0.604167 8.19271 0.5 9 0.5C9.80729 0.5 10.582 0.604167 11.3242 0.8125C12.0729 1.02083 12.7695 1.31706 13.4141 1.70117C14.0651 2.07878 14.6543 2.53451 15.1816 3.06836C15.7155 3.5957 16.1712 4.1849 16.5488 4.83594C16.9329 5.48047 17.2292 6.17708 17.4375 6.92578C17.6458 7.66797 17.75 8.44271 17.75 9.25C17.75 10.0573 17.6458 10.8353 17.4375 11.584C17.2292 12.3262 16.9329 13.0228 16.5488 13.6738C16.1712 14.3184 15.7155 14.9076 15.1816 15.4414C14.6543 15.9688 14.0651 16.4245 13.4141 16.8086C12.7695 17.1862 12.0729 17.4792 11.3242 17.6875C10.582 17.8958 9.80729 18 9 18ZM9 1.75C7.96484 1.75 6.99154 1.94857 6.08008 2.3457C5.17513 2.73633 4.38086 3.27344 3.69727 3.95703C3.02018 4.63411 2.48307 5.42839 2.08594 6.33984C1.69531 7.24479 1.5 8.21484 1.5 9.25C1.5 10.2852 1.69531 11.2585 2.08594 12.1699C2.48307 13.0749 3.02018 13.8691 3.69727 14.5527C4.38086 15.2298 5.17513 15.7669 6.08008 16.1641C6.99154 16.5547 7.96484 16.75 9 16.75C10.0352 16.75 11.0052 16.5547 11.9102 16.1641C12.8216 15.7669 13.6159 15.2298 14.293 14.5527C14.9766 13.8691 15.5137 13.0749 15.9043 12.1699C16.3014 11.2585 16.5 10.2852 16.5 9.25C16.5 8.21484 16.3014 7.24479 15.9043 6.33984C15.5137 5.42839 14.9766 4.63411 14.293 3.95703C13.6159 3.27344 12.8216 2.73633 11.9102 2.3457C11.0052 1.94857 10.0352 1.75 9 1.75ZM9 9.25V4.25H7.75V10.5H12.75V9.25H9Z" fill="#333333"/>
</svg>
