<svg width="18" height="19" viewBox="0 0 18 19" fill="none" xmlns="http://www.w3.org/2000/svg">
<path d="M14.9766 6.76758C15.3997 6.98242 15.7806 7.24935 16.1191 7.56836C16.4642 7.88086 16.7572 8.23242 16.998 8.62305C17.2389 9.00716 17.4245 9.42383 17.5547 9.87305C17.6849 10.3158 17.75 10.7747 17.75 11.25H16.5C16.5 10.7357 16.3991 10.2507 16.1973 9.79492C16.002 9.33919 15.735 8.94206 15.3965 8.60352C15.0579 8.26497 14.6608 7.99805 14.2051 7.80273C13.7493 7.60091 13.2643 7.5 12.75 7.5C12.2357 7.5 11.7507 7.60091 11.2949 7.80273C10.8392 7.99805 10.4421 8.26497 10.1035 8.60352C9.76497 8.94206 9.49479 9.33919 9.29297 9.79492C9.09766 10.2507 9 10.7357 9 11.25C9 11.8424 8.86328 12.4056 8.58984 12.9395C8.32292 13.4733 7.95182 13.916 7.47656 14.2676C7.89974 14.4824 8.2806 14.7493 8.61914 15.0684C8.96419 15.3809 9.25716 15.7324 9.49805 16.123C9.73893 16.5072 9.92448 16.9238 10.0547 17.373C10.1849 17.8158 10.25 18.2747 10.25 18.75H9C9 18.2357 8.89909 17.7507 8.69727 17.2949C8.50195 16.8392 8.23503 16.4421 7.89648 16.1035C7.55794 15.765 7.16081 15.498 6.70508 15.3027C6.24935 15.1009 5.76432 15 5.25 15C4.73568 15 4.25065 15.1009 3.79492 15.3027C3.33919 15.498 2.94206 15.765 2.60352 16.1035C2.26497 16.4421 1.99479 16.8392 1.79297 17.2949C1.59766 17.7507 1.5 18.2357 1.5 18.75H0.25C0.25 18.2747 0.315104 17.8158 0.445312 17.373C0.575521 16.9238 0.761068 16.5072 1.00195 16.123C1.24284 15.7324 1.53255 15.3809 1.87109 15.0684C2.21615 14.7493 2.60026 14.4824 3.02344 14.2676C2.54818 13.916 2.17383 13.4733 1.90039 12.9395C1.63346 12.4056 1.5 11.8424 1.5 11.25C1.5 10.7357 1.59766 10.2507 1.79297 9.79492C1.99479 9.33919 2.26497 8.94206 2.60352 8.60352C2.94206 8.26497 3.33919 7.99805 3.79492 7.80273C4.25065 7.60091 4.73568 7.5 5.25 7.5C5.84245 7.5 6.4056 7.63672 6.93945 7.91016C7.47331 8.17708 7.91602 8.54818 8.26758 9.02344C8.51497 8.53516 8.83073 8.09896 9.21484 7.71484C9.59896 7.33073 10.0352 7.01497 10.5234 6.76758C10.0482 6.41602 9.67383 5.97331 9.40039 5.43945C9.13346 4.9056 9 4.34245 9 3.75C9 3.23568 9.09766 2.75065 9.29297 2.29492C9.49479 1.83919 9.76497 1.44206 10.1035 1.10352C10.4421 0.764974 10.8392 0.498047 11.2949 0.302734C11.7507 0.100911 12.2357 0 12.75 0C13.2643 0 13.7493 0.100911 14.2051 0.302734C14.6608 0.498047 15.0579 0.764974 15.3965 1.10352C15.735 1.44206 16.002 1.83919 16.1973 2.29492C16.3991 2.75065 16.5 3.23568 16.5 3.75C16.5 4.34245 16.3633 4.9056 16.0898 5.43945C15.8229 5.97331 15.4518 6.41602 14.9766 6.76758ZM5.25 13.75C5.58854 13.75 5.91081 13.6849 6.2168 13.5547C6.52279 13.418 6.78646 13.2389 7.00781 13.0176C7.23568 12.7897 7.41471 12.526 7.54492 12.2266C7.68164 11.9206 7.75 11.5951 7.75 11.25C7.75 10.9115 7.68164 10.5892 7.54492 10.2832C7.41471 9.97721 7.23568 9.71354 7.00781 9.49219C6.78646 9.26432 6.52279 9.08529 6.2168 8.95508C5.91081 8.81836 5.58854 8.75 5.25 8.75C4.90495 8.75 4.57943 8.81836 4.27344 8.95508C3.97396 9.08529 3.71029 9.26432 3.48242 9.49219C3.26107 9.71354 3.08203 9.97721 2.94531 10.2832C2.8151 10.5892 2.75 10.9115 2.75 11.25C2.75 11.5951 2.8151 11.9206 2.94531 12.2266C3.08203 12.526 3.26107 12.7897 3.48242 13.0176C3.71029 13.2389 3.97396 13.418 4.27344 13.5547C4.57943 13.6849 4.90495 13.75 5.25 13.75ZM10.25 3.75C10.25 4.09505 10.3151 4.42057 10.4453 4.72656C10.582 5.02604 10.7611 5.28971 10.9824 5.51758C11.2103 5.73893 11.474 5.91797 11.7734 6.05469C12.0794 6.1849 12.4049 6.25 12.75 6.25C13.0885 6.25 13.4108 6.1849 13.7168 6.05469C14.0228 5.91797 14.2865 5.73893 14.5078 5.51758C14.7357 5.28971 14.9147 5.02604 15.0449 4.72656C15.1816 4.42057 15.25 4.09505 15.25 3.75C15.25 3.41146 15.1816 3.08919 15.0449 2.7832C14.9147 2.47721 14.7357 2.21354 14.5078 1.99219C14.2865 1.76432 14.0228 1.58529 13.7168 1.45508C13.4108 1.31836 13.0885 1.25 12.75 1.25C12.4049 1.25 12.0794 1.31836 11.7734 1.45508C11.474 1.58529 11.2103 1.76432 10.9824 1.99219C10.7611 2.21354 10.582 2.47721 10.4453 2.7832C10.3151 3.08919 10.25 3.41146 10.25 3.75Z" fill="#333333"/>
</svg>
