<svg width="14" height="20" viewBox="0 0 14 20" fill="none" xmlns="http://www.w3.org/2000/svg">
<path d="M7.2435 0C7.81641 0 8.3698 0.0748698 8.90365 0.224609C9.43751 0.374349 9.93555 0.585938 10.3978 0.859375C10.86 1.1263 11.28 1.45182 11.6576 1.83594C12.0417 2.21354 12.3672 2.63346 12.6341 3.0957C12.9076 3.55794 13.1191 4.05599 13.2689 4.58984C13.4186 5.1237 13.4935 5.67708 13.4935 6.25C13.4935 6.69922 13.4382 7.12891 13.3275 7.53906C13.2233 7.94271 13.0703 8.34635 12.8685 8.75L7.2435 20L1.6185 8.75C1.41667 8.34635 1.26042 7.94271 1.14975 7.53906C1.04558 7.12891 0.993497 6.69922 0.993497 6.25C0.993497 5.67708 1.06837 5.1237 1.21811 4.58984C1.36785 4.05599 1.57618 3.55794 1.84311 3.0957C2.11654 2.63346 2.44206 2.21354 2.81967 1.83594C3.20378 1.45182 3.62696 1.1263 4.0892 0.859375C4.55144 0.585938 5.04949 0.374349 5.58334 0.224609C6.11719 0.0748698 6.67058 0 7.2435 0ZM11.8919 8.26172C11.8919 8.25521 11.8919 8.25195 11.8919 8.25195C11.8984 8.25195 11.9017 8.2487 11.9017 8.24219C12.0645 7.9362 12.1882 7.61393 12.2728 7.27539C12.3574 6.93685 12.3997 6.59505 12.3997 6.25C12.3997 5.54036 12.263 4.87305 11.9896 4.24805C11.7227 3.62305 11.3548 3.07617 10.8861 2.60742C10.4173 2.13867 9.87045 1.77083 9.24545 1.50391C8.62045 1.23047 7.95313 1.09375 7.2435 1.09375C6.53386 1.09375 5.86654 1.23047 5.24154 1.50391C4.61654 1.77083 4.06967 2.13867 3.60092 2.60742C3.13217 3.07617 2.76108 3.62305 2.48764 4.24805C2.22071 4.87305 2.08725 5.54036 2.08725 6.25C2.08725 6.59505 2.12956 6.93685 2.2142 7.27539C2.29884 7.61393 2.42253 7.9362 2.58529 8.24219C2.58529 8.2487 2.58529 8.25195 2.58529 8.25195C2.5918 8.25195 2.59506 8.25521 2.59506 8.26172L7.2435 17.5586L11.8919 8.26172ZM7.2435 2.57812C7.75131 2.57812 8.22657 2.67578 8.66928 2.87109C9.1185 3.0599 9.50912 3.32031 9.84115 3.65234C10.1732 3.98438 10.4336 4.375 10.6224 4.82422C10.8177 5.26693 10.9154 5.74219 10.9154 6.25C10.9154 6.75781 10.8177 7.23633 10.6224 7.68555C10.4336 8.12826 10.1732 8.51562 9.84115 8.84766C9.50912 9.17969 9.1185 9.44336 8.66928 9.63867C8.22657 9.82747 7.75131 9.92188 7.2435 9.92188C6.73568 9.92188 6.25717 9.82747 5.80795 9.63867C5.36524 9.44336 4.97787 9.17969 4.64584 8.84766C4.31381 8.51562 4.05014 8.12826 3.85483 7.68555C3.66602 7.23633 3.57162 6.75781 3.57162 6.25C3.57162 5.74219 3.66602 5.26693 3.85483 4.82422C4.05014 4.375 4.31381 3.98438 4.64584 3.65234C4.97787 3.32031 5.36524 3.0599 5.80795 2.87109C6.25717 2.67578 6.73568 2.57812 7.2435 2.57812ZM7.2435 8.82812C7.60157 8.82812 7.93686 8.76302 8.24936 8.63281C8.56186 8.49609 8.83529 8.31055 9.06967 8.07617C9.30404 7.8418 9.48634 7.56836 9.61654 7.25586C9.75326 6.94336 9.82162 6.60807 9.82162 6.25C9.82162 5.89193 9.75326 5.55664 9.61654 5.24414C9.48634 4.93164 9.30404 4.6582 9.06967 4.42383C8.83529 4.18945 8.56186 4.00716 8.24936 3.87695C7.93686 3.74023 7.60157 3.67188 7.2435 3.67188C6.88542 3.67188 6.55014 3.74023 6.23764 3.87695C5.92514 4.00716 5.6517 4.18945 5.41733 4.42383C5.18295 4.6582 4.9974 4.93164 4.86068 5.24414C4.73048 5.55664 4.66537 5.89193 4.66537 6.25C4.66537 6.60807 4.73048 6.94336 4.86068 7.25586C4.9974 7.56836 5.18295 7.8418 5.41733 8.07617C5.6517 8.31055 5.92514 8.49609 6.23764 8.63281C6.55014 8.76302 6.88542 8.82812 7.2435 8.82812Z" fill="#333333"/>
</svg>
