<svg width="14" height="14" viewBox="0 0 14 14" fill="none" xmlns="http://www.w3.org/2000/svg">
<path d="M10.8417 0.552974L11.6869 0.326507L12.5927 3.70725L9.21199 4.61311L8.98552 3.76793L10.841 3.27076C10.5127 2.94354 10.1482 2.66612 9.74748 2.43851C9.35119 2.20971 8.93207 2.03657 8.49012 1.91909C8.05258 1.80042 7.60218 1.73946 7.13894 1.7362C6.68009 1.73176 6.22397 1.79028 5.77056 1.91177C5.16309 2.07455 4.61194 2.3331 4.11713 2.68743C3.62114 3.03736 3.19979 3.45458 2.85308 3.93908C2.5096 4.41799 2.25103 4.94965 2.07735 5.53404C1.90808 6.11726 1.84583 6.72133 1.89061 7.34627L1.0144 7.40413C0.978593 6.91832 0.999895 6.44317 1.07831 5.97866C1.16112 5.51298 1.29181 5.06749 1.47037 4.6422C1.65216 4.21132 1.8764 3.80682 2.14308 3.42869C2.41417 3.04938 2.72347 2.70701 3.07097 2.40158C3.4173 2.09175 3.79861 1.82445 4.2149 1.59967C4.63002 1.37049 5.07308 1.1928 5.5441 1.06659C6.06353 0.927406 6.58805 0.859993 7.11764 0.86435C7.64605 0.864304 8.16177 0.931353 8.6648 1.0655C9.17105 1.19406 9.65404 1.38547 10.1138 1.63973C10.5779 1.89281 11.001 2.20406 11.3831 2.57349L10.8417 0.552974ZM8.48816 12.054C9.09564 11.8912 9.64738 11.6349 10.1434 11.2849C10.6382 10.9306 11.0573 10.514 11.4008 10.0351C11.7475 9.55057 12.0061 9.01891 12.1765 8.4401C12.3502 7.8557 12.4147 7.25104 12.3699 6.6261L13.2377 6.56341C13.292 7.29431 13.2193 8.00027 13.0196 8.68128C12.8188 9.35788 12.518 9.97868 12.1174 10.5437C11.7156 11.1043 11.223 11.5901 10.6396 12.0012C10.0606 12.4111 9.41895 12.7105 8.71463 12.8992C8.19079 13.0395 7.66247 13.1103 7.12965 13.1116C6.60007 13.1072 6.08434 13.0402 5.58249 12.9104C5.08064 12.7807 4.59985 12.5887 4.14013 12.3344C3.67922 12.0758 3.25773 11.7617 2.87566 11.3923L3.41705 13.4128L2.57187 13.6393L1.666 10.2585L5.04674 9.35265L5.27321 10.1978L3.41776 10.695C3.74724 11.0266 4.11013 11.3068 4.50641 11.5356C4.9071 11.7633 5.32622 11.9364 5.76377 12.0551C6.20014 12.1693 6.64774 12.2287 7.10659 12.2331C7.56983 12.2364 8.03036 12.1767 8.48816 12.054Z" fill="#828282"/>
</svg>
